<svg width="23" height="23" viewBox="0 0 23 23" fill="none" xmlns="http://www.w3.org/2000/svg">
<path d="M19.4062 2.875H3.59375C3.40313 2.875 3.22031 2.95073 3.08552 3.08552C2.95073 3.22031 2.875 3.40313 2.875 3.59375V12.2188C2.875 12.4094 2.95073 12.5922 3.08552 12.727C3.22031 12.8618 3.40313 12.9375 3.59375 12.9375H19.4062C19.5969 12.9375 19.7797 12.8618 19.9145 12.727C20.0493 12.5922 20.125 12.4094 20.125 12.2188V3.59375C20.125 3.40313 20.0493 3.22031 19.9145 3.08552C19.7797 2.95073 19.5969 2.875 19.4062 2.875ZM4.3125 4.3125H10.7812V11.5H4.3125V4.3125ZM18.6875 11.5H12.2188V4.3125H18.6875V11.5Z" fill="white"/>
<path d="M6.46875 15.0938C6.32659 15.0938 6.18763 15.1359 6.06943 15.2149C5.95124 15.2939 5.85911 15.4061 5.80471 15.5374C5.75031 15.6688 5.73608 15.8133 5.76381 15.9527C5.79154 16.0921 5.86 16.2202 5.96052 16.3207C6.06104 16.4213 6.18911 16.4897 6.32853 16.5174C6.46795 16.5452 6.61247 16.5309 6.7438 16.4765C6.87514 16.4221 6.98739 16.33 7.06637 16.2118C7.14535 16.0936 7.1875 15.9547 7.1875 15.8125C7.1875 15.6219 7.11177 15.4391 6.97698 15.3043C6.84219 15.1695 6.65937 15.0938 6.46875 15.0938Z" fill="white"/>
<path d="M17.25 15.8125C17.25 15.6703 17.2078 15.5314 17.1289 15.4132C17.0499 15.295 16.9376 15.2029 16.8063 15.1485C16.675 15.0941 16.5305 15.0798 16.391 15.1076C16.2516 15.1353 16.1235 15.2037 16.023 15.3043C15.9225 15.4048 15.854 15.5329 15.8263 15.6723C15.7986 15.8117 15.8128 15.9562 15.8672 16.0876C15.9216 16.2189 16.0137 16.3311 16.1319 16.4101C16.2501 16.4891 16.3891 16.5312 16.5313 16.5312C16.7219 16.5312 16.9047 16.4555 17.0395 16.3207C17.1743 16.1859 17.25 16.0031 17.25 15.8125Z" fill="white"/>
<path d="M9.34375 16.5312H13.6562C13.8469 16.5312 14.0297 16.4555 14.1645 16.3207C14.2993 16.1859 14.375 16.0031 14.375 15.8125C14.375 15.6219 14.2993 15.4391 14.1645 15.3043C14.0297 15.1695 13.8469 15.0938 13.6562 15.0938H9.34375C9.15313 15.0938 8.97031 15.1695 8.83552 15.3043C8.70073 15.4391 8.625 15.6219 8.625 15.8125C8.625 16.0031 8.70073 16.1859 8.83552 16.3207C8.97031 16.4555 9.15313 16.5312 9.34375 16.5312Z" fill="white"/>
<path d="M20.8438 2.875H20.125V2.15625C20.125 1.58438 19.8978 1.03593 19.4935 0.631551C19.0891 0.227176 18.5406 0 17.9688 0L10.7812 0C10.5906 0 10.4078 0.0757252 10.273 0.210517C10.1382 0.345309 10.0625 0.528126 10.0625 0.71875C10.0625 0.909374 10.1382 1.09219 10.273 1.22698C10.4078 1.36177 10.5906 1.4375 10.7812 1.4375H17.9688C18.1594 1.4375 18.3422 1.51323 18.477 1.64802C18.6118 1.78281 18.6875 1.96563 18.6875 2.15625V17.9688C18.6875 18.1594 18.6118 18.3422 18.477 18.477C18.3422 18.6118 18.1594 18.6875 17.9688 18.6875H5.03125C4.84063 18.6875 4.65781 18.6118 4.52302 18.477C4.38823 18.3422 4.3125 18.1594 4.3125 17.9688V2.15625C4.3125 1.96563 4.38823 1.78281 4.52302 1.64802C4.65781 1.51323 4.84063 1.4375 5.03125 1.4375H7.90625C8.09687 1.4375 8.27969 1.36177 8.41448 1.22698C8.54927 1.09219 8.625 0.909374 8.625 0.71875C8.625 0.528126 8.54927 0.345309 8.41448 0.210517C8.27969 0.0757252 8.09687 0 7.90625 0L5.03125 0C4.45938 0 3.91093 0.227176 3.50655 0.631551C3.10218 1.03593 2.875 1.58438 2.875 2.15625V2.875H2.15625C1.58438 2.875 1.03593 3.10218 0.631551 3.50655C0.227176 3.91093 0 4.45938 0 5.03125L0 10.7812C0 10.9719 0.0757252 11.1547 0.210517 11.2895C0.345309 11.4243 0.528126 11.5 0.71875 11.5C0.909374 11.5 1.09219 11.4243 1.22698 11.2895C1.36177 11.1547 1.4375 10.9719 1.4375 10.7812V5.03125C1.4375 4.84063 1.51323 4.65781 1.64802 4.52302C1.78281 4.38823 1.96563 4.3125 2.15625 4.3125H2.875V17.9688C2.87625 18.4136 3.01507 18.8472 3.27242 19.2101C3.52978 19.5729 3.89307 19.8473 4.3125 19.9956V20.8438C4.3125 21.4156 4.53968 21.9641 4.94405 22.3685C5.34843 22.7728 5.89688 23 6.46875 23H7.1875C7.75937 23 8.30782 22.7728 8.7122 22.3685C9.11657 21.9641 9.34375 21.4156 9.34375 20.8438V20.125H13.6562V20.8438C13.6562 21.4156 13.8834 21.9641 14.2878 22.3685C14.6922 22.7728 15.2406 23 15.8125 23H16.5312C17.1031 23 17.6516 22.7728 18.056 22.3685C18.4603 21.9641 18.6875 21.4156 18.6875 20.8438V19.9956C19.1069 19.8473 19.4702 19.5729 19.7276 19.2101C19.9849 18.8472 20.1237 18.4136 20.125 17.9688V4.3125H20.8438C21.0344 4.3125 21.2172 4.38823 21.352 4.52302C21.4868 4.65781 21.5625 4.84063 21.5625 5.03125V10.7812C21.5625 10.9719 21.6382 11.1547 21.773 11.2895C21.9078 11.4243 22.0906 11.5 22.2812 11.5C22.4719 11.5 22.6547 11.4243 22.7895 11.2895C22.9243 11.1547 23 10.9719 23 10.7812V5.03125C23 4.45938 22.7728 3.91093 22.3685 3.50655C21.9641 3.10218 21.4156 2.875 20.8438 2.875ZM7.90625 20.8438C7.90625 21.0344 7.83052 21.2172 7.69573 21.352C7.56094 21.4868 7.37812 21.5625 7.1875 21.5625H6.46875C6.27813 21.5625 6.09531 21.4868 5.96052 21.352C5.82573 21.2172 5.75 21.0344 5.75 20.8438V20.125H7.90625V20.8438ZM17.25 20.8438C17.25 21.0344 17.1743 21.2172 17.0395 21.352C16.9047 21.4868 16.7219 21.5625 16.5312 21.5625H15.8125C15.6219 21.5625 15.4391 21.4868 15.3043 21.352C15.1695 21.2172 15.0938 21.0344 15.0938 20.8438V20.125H17.25V20.8438Z" fill="white"/>
</svg>
