<svg width="12" height="12" viewBox="0 0 12 12" fill="none" xmlns="http://www.w3.org/2000/svg">
<path fill-rule="evenodd" clip-rule="evenodd" d="M6 12C9.31371 12 12 9.31371 12 6C12 2.68629 9.31371 0 6 0C2.68629 0 0 2.68629 0 6C0 9.31371 2.68629 12 6 12ZM7 2.33337C7 1.78109 6.55228 1.33337 6 1.33337C5.44772 1.33337 5 1.78109 5 2.33337V5.75004C5 6.4404 5.55964 7.00004 6.25 7.00004H8.33333C8.88562 7.00004 9.33333 6.55233 9.33333 6.00004C9.33333 5.44776 8.88562 5.00004 8.33333 5.00004H7V2.33337Z" fill="#22376C"/>
</svg>
