<svg width="12" height="12" viewBox="0 0 12 12" fill="none" xmlns="http://www.w3.org/2000/svg">
<path fill-rule="evenodd" clip-rule="evenodd" d="M2.325 8.39951C2.35993 8.35294 2.40522 8.31514 2.45729 8.2891C2.50937 8.26307 2.56678 8.24951 2.625 8.24951H4.5C4.59946 8.24951 4.69484 8.28902 4.76516 8.35935C4.83549 8.42967 4.875 8.52506 4.875 8.62451C4.875 8.72397 4.83549 8.81935 4.76516 8.88968C4.69484 8.96 4.59946 8.99951 4.5 8.99951H2.8125L1.125 11.2495H10.875L9.1875 8.99951H7.5C7.40054 8.99951 7.30516 8.96 7.23483 8.88968C7.16451 8.81935 7.125 8.72397 7.125 8.62451C7.125 8.52506 7.16451 8.42967 7.23483 8.35935C7.30516 8.28902 7.40054 8.24951 7.5 8.24951H9.375C9.43322 8.24951 9.49063 8.26307 9.54271 8.2891C9.59478 8.31514 9.64007 8.35294 9.675 8.39951L11.925 11.3995C11.9668 11.4552 11.9922 11.5215 11.9985 11.5908C12.0047 11.6602 11.9916 11.7299 11.9604 11.7922C11.9293 11.8545 11.8814 11.9069 11.8221 11.9435C11.7629 11.9801 11.6946 11.9995 11.625 11.9995H0.375C0.305358 11.9995 0.237092 11.9801 0.177851 11.9435C0.11861 11.9069 0.0707348 11.8545 0.03959 11.7922C0.00844514 11.7299 -0.0047388 11.6602 0.00151543 11.5908C0.00776967 11.5215 0.033215 11.4552 0.0750002 11.3995L2.325 8.39951Z" fill="#22376C"/>
<path fill-rule="evenodd" clip-rule="evenodd" d="M6 0.749722C5.70453 0.749722 5.41195 0.80792 5.13896 0.920993C4.86598 1.03407 4.61794 1.1998 4.40901 1.40873C4.20008 1.61766 4.03434 1.8657 3.92127 2.13868C3.8082 2.41167 3.75 2.70425 3.75 2.99972C3.75 3.2952 3.8082 3.58778 3.92127 3.86076C4.03434 4.13374 4.20008 4.38178 4.40901 4.59071C4.61794 4.79964 4.86598 4.96538 5.13896 5.07845C5.41195 5.19152 5.70453 5.24972 6 5.24972C6.59674 5.24972 7.16903 5.01267 7.59099 4.59071C8.01295 4.16876 8.25 3.59646 8.25 2.99972C8.25 2.40298 8.01295 1.83069 7.59099 1.40873C7.16903 0.986775 6.59674 0.749722 6 0.749722ZM3 2.99972C3.00005 2.42239 3.16669 1.85734 3.47992 1.37237C3.79315 0.887393 4.23966 0.503101 4.76588 0.265602C5.2921 0.0281031 5.87567 -0.0525138 6.44656 0.0334245C7.01746 0.119363 7.55144 0.368206 7.98442 0.750094C8.4174 1.13198 8.73099 1.63069 8.88757 2.18639C9.04414 2.74208 9.03705 3.33115 8.86714 3.88291C8.69723 4.43467 8.37172 4.92569 7.92967 5.29704C7.48762 5.66839 6.9478 5.90431 6.375 5.97647V10.1247C6.375 10.2242 6.33549 10.3196 6.26517 10.3899C6.19484 10.4602 6.09946 10.4997 6 10.4997C5.90054 10.4997 5.80516 10.4602 5.73484 10.3899C5.66451 10.3196 5.625 10.2242 5.625 10.1247V5.97722C4.89972 5.88585 4.23277 5.5328 3.74941 4.9844C3.26606 4.436 2.99957 3.72998 3 2.99897V2.99972Z" fill="#22376C"/>
</svg>
