<svg width="32" height="32" viewBox="0 0 32 32" fill="none" xmlns="http://www.w3.org/2000/svg">
<path d="M16.0001 0.390259C7.38656 0.390259 0.390381 7.38644 0.390381 16C0.390381 24.6136 7.38656 31.6098 16.0001 31.6098C24.6137 31.6098 31.6099 24.6136 31.6099 16C31.6099 7.38644 24.6137 0.390259 16.0001 0.390259ZM16.0001 30.2557C8.13884 30.2557 1.74448 23.8613 1.74448 16C1.74448 8.13872 8.13884 1.74436 16.0001 1.74436C23.8614 1.74436 30.2558 8.13872 30.2558 16C30.2558 23.8613 23.8614 30.2557 16.0001 30.2557Z" fill="#104798"/>
<path fill-rule="evenodd" clip-rule="evenodd" d="M6.10352e-05 16C6.10352e-05 7.1709 7.17096 0 16.0001 0C24.8292 0 32.0001 7.1709 32.0001 16C32.0001 24.8291 24.8292 32 16.0001 32C7.17096 32 6.10352e-05 24.8291 6.10352e-05 16ZM16.0001 0.780488C7.60201 0.780488 0.780549 7.60195 0.780549 16C0.780549 24.3981 7.60201 31.2195 16.0001 31.2195C24.3981 31.2195 31.2196 24.3981 31.2196 16C31.2196 7.60195 24.3981 0.780488 16.0001 0.780488ZM16.0001 2.13459C8.35429 2.13459 2.13465 8.35423 2.13465 16C2.13465 23.6458 8.35429 29.8654 16.0001 29.8654C23.6458 29.8654 29.8655 23.6458 29.8655 16C29.8655 8.35423 23.6458 2.13459 16.0001 2.13459ZM1.35416 16C1.35416 7.92318 7.92324 1.3541 16.0001 1.3541C24.0769 1.3541 30.646 7.92317 30.646 16C30.646 24.0768 24.0769 30.6459 16.0001 30.6459C7.92324 30.6459 1.35416 24.0768 1.35416 16Z" fill="#104798"/>
<path d="M24.1249 12.6146H19.3856V7.87529C19.3856 7.49915 19.0847 7.19824 18.7085 7.19824H13.2921C12.916 7.19824 12.6151 7.49915 12.6151 7.87529V12.6146H7.87572C7.49958 12.6146 7.19867 12.9156 7.19867 13.2917V18.7081C7.19867 19.0842 7.49958 19.3851 7.87572 19.3851H12.6151V24.1245C12.6151 24.5006 12.916 24.8015 13.2921 24.8015H18.7085C19.0847 24.8015 19.3856 24.5006 19.3856 24.1245V19.3851H24.1249C24.501 19.3851 24.802 19.0842 24.802 18.7081V13.2917C24.7643 12.9156 24.4634 12.6146 24.1249 12.6146ZM23.4855 18.031H23.4479H18.7085C18.3324 18.031 18.0315 18.332 18.0315 18.7081V23.4474H13.9692V18.7081C13.9692 18.332 13.6683 18.031 13.2921 18.031H8.55277V13.9687H13.2921C13.6683 13.9687 13.9692 13.6678 13.9692 13.2917V8.55234H18.0691V13.2917C18.0691 13.6678 18.37 13.9687 18.7461 13.9687H23.4855V18.031Z" fill="#104798"/>
<path fill-rule="evenodd" clip-rule="evenodd" d="M12.2248 7.8754C12.2248 7.28373 12.7004 6.80811 13.2921 6.80811H18.7085C19.3002 6.80811 19.7758 7.28373 19.7758 7.8754V12.2245H24.1249C24.6979 12.2245 25.1363 12.7131 25.1903 13.253L25.1922 13.2723V18.7082C25.1922 19.2999 24.7166 19.7755 24.1249 19.7755H19.7758V24.1246C19.7758 24.7163 19.3002 25.1919 18.7085 25.1919H13.2921C12.7004 25.1919 12.2248 24.7163 12.2248 24.1246V19.7755H7.8757C7.28404 19.7755 6.80841 19.2999 6.80841 18.7082V13.2918C6.80841 12.7001 7.28404 12.2245 7.8757 12.2245H12.2248V7.8754ZM13.2921 7.58859C13.1315 7.58859 13.0053 7.71479 13.0053 7.8754V13.005H7.8757C7.71509 13.005 7.5889 13.1312 7.5889 13.2918V18.7082C7.5889 18.8688 7.71509 18.995 7.8757 18.995H13.0053V24.1246C13.0053 24.2852 13.1315 24.4114 13.2921 24.4114H18.7085C18.8691 24.4114 18.9953 24.2852 18.9953 24.1246V18.995H24.1249C24.2855 18.995 24.4117 18.8688 24.4117 18.7082V13.3143C24.384 13.1124 24.2262 13.005 24.1249 13.005H18.9953V7.8754C18.9953 7.71479 18.8691 7.58859 18.7085 7.58859H13.2921ZM13.5789 8.16221H18.4593V13.2918C18.4593 13.4524 18.5855 13.5786 18.7461 13.5786H23.8757V18.4214H18.7085C18.5479 18.4214 18.4217 18.5476 18.4217 18.7082V23.8378H13.5789V18.7082C13.5789 18.5476 13.4527 18.4214 13.2921 18.4214H8.16251V13.5786H13.2921C13.4527 13.5786 13.5789 13.4524 13.5789 13.2918V8.16221ZM14.3594 8.94269V13.2918C14.3594 13.8835 13.8838 14.3591 13.2921 14.3591H8.943V17.6409H13.2921C13.8838 17.6409 14.3594 18.1165 14.3594 18.7082V23.0573H17.6412V18.7082C17.6412 18.1165 18.1168 17.6409 18.7085 17.6409H23.0952V14.3591H18.7461C18.1544 14.3591 17.6788 13.8835 17.6788 13.2918V8.94269H14.3594Z" fill="#104798"/>
</svg>
