<svg width="24" height="26" viewBox="0 0 24 26" fill="none" xmlns="http://www.w3.org/2000/svg">
<path d="M9.5481 3.61085C9.5481 3.41932 9.62418 3.23563 9.75962 3.10019C9.89505 2.96476 10.0787 2.88867 10.2703 2.88867H13.159C13.3505 2.88867 13.5342 2.96476 13.6696 3.10019C13.8051 3.23563 13.8812 3.41932 13.8812 3.61085C13.8812 3.80238 13.8051 3.98607 13.6696 4.12151C13.5342 4.25694 13.3505 4.33303 13.159 4.33303H10.2703C10.0787 4.33303 9.89505 4.25694 9.75962 4.12151C9.62418 3.98607 9.5481 3.80238 9.5481 3.61085Z" fill="white"/>
<path fill-rule="evenodd" clip-rule="evenodd" d="M18.477 9.04168C18.2149 9.2475 17.8747 9.41215 17.4645 9.54576C17.543 10.3481 17.4527 11.1579 17.1994 11.9232C16.9462 12.6885 16.5356 13.3924 15.994 13.9895C15.4525 14.5866 14.7919 15.0638 14.0549 15.3904C13.3179 15.7169 12.5207 15.8856 11.7145 15.8856C10.9084 15.8856 10.1112 15.7169 9.37415 15.3904C8.63712 15.0638 7.97659 14.5866 7.43503 13.9895C6.89346 13.3924 6.48285 12.6885 6.2296 11.9232C5.97635 11.1579 5.88606 10.3481 5.96454 9.54576C5.55434 9.41215 5.21419 9.2475 4.95276 9.04168C4.61334 8.77447 4.38585 8.41771 4.35913 7.98874C4.33386 7.59082 4.49129 7.25284 4.64873 7.01452C4.80414 6.78879 4.98869 6.58457 5.19758 6.40717C5.29869 6.31834 5.39835 6.23962 5.49079 6.17102C5.46334 6.02297 5.43301 5.84387 5.40268 5.6366C5.27474 4.72628 5.21199 3.80798 5.21491 2.88871C5.21491 2.66195 5.31169 2.49296 5.35646 2.42146C5.41279 2.33119 5.47923 2.25392 5.53989 2.19181C5.6605 2.06543 5.81649 1.93688 5.98764 1.81339C6.33429 1.56207 6.81093 1.2797 7.37712 1.01538C8.50588 0.488193 10.0564 0 11.7145 0C13.3734 0 14.9232 0.488915 16.0519 1.01538C16.5387 1.23802 17.0038 1.50515 17.4414 1.81339C17.6126 1.93688 17.7685 2.06615 17.8891 2.19181C17.9498 2.25392 18.0163 2.33119 18.0726 2.42146C18.1174 2.49296 18.2141 2.66195 18.2141 2.88871C18.2141 4.04564 18.1202 4.98303 18.0264 5.6366C17.996 5.84387 17.9657 6.02297 17.9383 6.17102C18.0307 6.23962 18.1311 6.31834 18.2322 6.40717C18.4127 6.56533 18.6193 6.77115 18.7803 7.01452C18.9385 7.25284 19.0952 7.59082 19.0706 7.98946C19.0439 8.41771 18.8164 8.77447 18.477 9.04168ZM6.66072 3.11837C6.67155 4.09186 6.75243 4.87904 6.83259 5.42934C6.85137 5.55933 6.87015 5.67488 6.88748 5.77743H16.5416C16.5596 5.67488 16.5777 5.55861 16.5964 5.42934C16.6759 4.87904 16.7575 4.09186 16.7683 3.11837C16.7121 3.07085 16.6541 3.02555 16.5943 2.9826C16.3336 2.79411 15.9378 2.55651 15.441 2.32469C14.4422 1.85817 13.104 1.44436 11.7145 1.44436C10.325 1.44436 8.98685 1.85817 7.98808 2.32469C7.49122 2.55651 7.09547 2.79411 6.83548 2.98188C6.77544 3.02529 6.71714 3.07106 6.66072 3.11909V3.11837ZM6.50617 7.22179L6.504 7.22323C6.37936 7.30629 6.25997 7.39697 6.14652 7.49477C6.01798 7.60743 5.91543 7.7172 5.85332 7.81253C5.83854 7.83397 5.82527 7.85641 5.8136 7.87969C5.82383 7.88902 5.83443 7.89794 5.84538 7.90641C5.9537 7.99163 6.18624 8.11657 6.63977 8.24006C6.72932 8.26461 6.82537 8.28772 6.92792 8.31083L6.93442 8.31228C7.29696 8.39244 7.74326 8.46393 8.28706 8.52026C9.05763 8.60043 10.0275 8.65314 11.2393 8.6647L11.7145 8.66614C14.045 8.66614 15.5522 8.52099 16.4953 8.31228L16.5011 8.31083C16.6044 8.28772 16.7004 8.26461 16.79 8.24006C17.2428 8.11729 17.4761 7.99163 17.5837 7.90641C17.5946 7.89794 17.6052 7.88902 17.6154 7.87969C17.604 7.85643 17.591 7.834 17.5764 7.81253C17.4924 7.69449 17.3937 7.5877 17.2825 7.49477C17.1693 7.39698 17.0502 7.30629 16.9258 7.22323L16.9229 7.22179H6.50617ZM11.5181 10.1105C13.4261 10.1105 14.9051 10.0094 16.0389 9.83318C16.0762 10.422 15.9928 11.0122 15.7939 11.5676C15.5951 12.1231 15.2848 12.6321 14.8823 13.0634C14.4797 13.4947 13.9933 13.8393 13.4529 14.076C12.9125 14.3127 12.3294 14.4365 11.7395 14.4399C11.1495 14.4433 10.565 14.3262 10.0219 14.0957C9.47882 13.8653 8.9885 13.5263 8.58101 13.0997C8.17352 12.673 7.85745 12.1677 7.65217 11.6145C7.4469 11.0614 7.35674 10.4722 7.38723 9.88301C8.44377 10.0289 9.79786 10.1105 11.5181 10.1105Z" fill="white"/>
<path fill-rule="evenodd" clip-rule="evenodd" d="M5.99355 23.7431C5.95592 24.0118 5.93709 24.2827 5.93722 24.5541V25.2762C5.9373 25.435 5.88506 25.5894 5.78859 25.7154C5.69212 25.8415 5.55679 25.9323 5.40354 25.9738C5.25028 26.0152 5.08764 26.005 4.94078 25.9447C4.79392 25.8844 4.67101 25.7774 4.59108 25.6402C4.10436 25.9043 3.5348 25.9712 3.00012 25.8273L1.60487 25.4532C1.05006 25.3043 0.577108 24.9411 0.290004 24.4435C0.00290028 23.946 -0.0748495 23.3548 0.07385 22.7999L0.63426 20.707C0.78303 20.1521 1.14613 19.679 1.64371 19.3917C2.14128 19.1045 2.73258 19.0266 3.28755 19.1753L4.68279 19.5486C5.1681 19.6786 5.57107 19.9639 5.85128 20.3365C6.51981 19.406 7.40044 18.6481 8.42021 18.1256C9.43998 17.6032 10.5696 17.3312 11.7154 17.3323C12.8606 17.3315 13.9895 17.6035 15.0087 18.1257C16.0279 18.6478 16.9082 19.4052 17.5766 20.3351C17.8668 19.9501 18.2777 19.6735 18.7436 19.5494L20.1389 19.176C20.6937 19.0273 21.2849 19.1051 21.7825 19.3922C22.2801 19.6793 22.6432 20.1522 22.7921 20.707L23.3533 22.8006C23.4269 23.0755 23.4456 23.3621 23.4084 23.6442C23.3713 23.9263 23.2789 24.1983 23.1366 24.4447C22.9943 24.691 22.8048 24.907 22.5791 25.0801C22.3533 25.2533 22.0957 25.3803 21.8208 25.4539L20.4263 25.8273C19.8926 25.9713 19.3239 25.9051 18.8375 25.6424C18.7573 25.7794 18.6342 25.8861 18.4873 25.9461C18.3404 26.0061 18.1778 26.0161 18.0246 25.9744C17.8715 25.9327 17.7363 25.8417 17.6401 25.7155C17.5438 25.5893 17.4918 25.435 17.4921 25.2762V24.5541C17.4922 24.2827 17.4734 24.0118 17.4357 23.7431L13.6775 24.7505C13.5031 25.1239 13.2257 25.4398 12.8781 25.6611C12.5304 25.8824 12.1268 26 11.7146 26C11.3025 26 10.8989 25.8824 10.5512 25.6611C10.2036 25.4398 9.92622 25.1239 9.75177 24.7505L5.99355 23.7431ZM9.63477 23.2231C9.7317 22.8939 9.90528 22.5923 10.1413 22.3431C10.3773 22.0939 10.669 21.9042 10.9925 21.7896V18.8214C9.97951 18.9495 9.01849 19.3434 8.20708 19.9631C7.39566 20.5829 6.76276 21.4064 6.37269 22.35L9.63477 23.2238V23.2231ZM17.0566 22.3493C16.6664 21.4058 16.0335 20.5825 15.2221 19.9628C14.4107 19.3432 13.4497 18.9494 12.4368 18.8214V21.7888C13.0897 22.0199 13.5995 22.5544 13.7945 23.2238L17.0566 22.35V22.3493ZM18.6071 21.8293C18.5825 21.7377 18.5763 21.6421 18.5886 21.5481C18.601 21.454 18.6317 21.3633 18.6792 21.2812C18.7266 21.199 18.7897 21.127 18.865 21.0693C18.9402 21.0115 19.0261 20.9692 19.1177 20.9446L20.5129 20.5705C20.6979 20.5211 20.8948 20.5471 21.0606 20.6429C21.2263 20.7386 21.3473 20.8962 21.3969 21.0811L21.958 23.174C21.9826 23.2656 21.9889 23.3612 21.9765 23.4552C21.9642 23.5492 21.9334 23.6399 21.886 23.7221C21.8386 23.8042 21.7754 23.8762 21.7002 23.934C21.625 23.9917 21.5391 24.0341 21.4475 24.0587L20.0522 24.4327C19.9605 24.4573 19.8649 24.4636 19.7709 24.4512C19.6768 24.4387 19.5861 24.4079 19.5039 24.3604C19.4217 24.3129 19.3497 24.2497 19.292 24.1744C19.2343 24.0991 19.192 24.0131 19.1675 23.9214L18.6071 21.8293ZM2.91418 20.5705C2.82252 20.5458 2.72689 20.5395 2.63276 20.5518C2.53864 20.5641 2.44786 20.5948 2.36563 20.6423C2.2834 20.6897 2.21132 20.7528 2.15352 20.8281C2.09572 20.9035 2.05334 20.9894 2.02879 21.0811L1.46838 23.1733C1.4438 23.2649 1.43752 23.3604 1.44988 23.4545C1.46224 23.5485 1.493 23.6392 1.54042 23.7214C1.58783 23.8035 1.65096 23.8755 1.72621 23.9333C1.80145 23.991 1.88734 24.0334 1.97896 24.0579L3.37421 24.432C3.46582 24.4566 3.56138 24.4629 3.65542 24.4505C3.74946 24.4382 3.84015 24.4074 3.9223 24.36C4.00446 24.3126 4.07646 24.2494 4.13421 24.1742C4.19196 24.0989 4.23432 24.0131 4.25887 23.9214L4.81929 21.8286C4.84397 21.7369 4.85034 21.6413 4.83803 21.5471C4.82572 21.453 4.79498 21.3622 4.74756 21.28C4.70013 21.1978 4.63697 21.1257 4.56166 21.0679C4.48636 21.0101 4.4004 20.9677 4.30871 20.9432L2.91346 20.5698L2.91418 20.5705ZM12.4368 23.8319C12.4368 24.0234 12.3607 24.2071 12.2253 24.3425C12.0899 24.478 11.9062 24.5541 11.7146 24.5541C11.5231 24.5541 11.3394 24.478 11.204 24.3425C11.0686 24.2071 10.9925 24.0234 10.9925 23.8319C10.9925 23.6404 11.0686 23.4567 11.204 23.3212C11.3394 23.1858 11.5231 23.1097 11.7146 23.1097C11.9062 23.1097 12.0899 23.1858 12.2253 23.3212C12.3607 23.4567 12.4368 23.6404 12.4368 23.8319Z" fill="white"/>
</svg>
