<svg width="15" height="11" viewBox="0 0 15 11" fill="none" xmlns="http://www.w3.org/2000/svg">
<path d="M1.60714 0C0.725893 0 0 0.74525 0 1.65V9.35C0 10.2548 0.725893 11 1.60714 11H13.3929C14.2741 11 15 10.2548 15 9.35V1.65C15 0.74525 14.2741 0 13.3929 0H1.60714ZM1.60714 1.1H13.3929C13.6961 1.1 13.9286 1.3387 13.9286 1.65V9.35C13.9286 9.6613 13.6961 9.9 13.3929 9.9H1.60714C1.30393 9.9 1.07143 9.6613 1.07143 9.35V1.65C1.07143 1.3387 1.30393 1.1 1.60714 1.1ZM4.82143 2.2C3.64286 2.2 2.67857 3.19 2.67857 4.4C2.67857 5.01215 2.93411 5.56435 3.33161 5.9642C2.96696 6.21683 2.66802 6.55718 2.46082 6.95558C2.25363 7.35399 2.14447 7.79837 2.14286 8.25H3.21429C3.21429 7.3326 3.92786 6.6 4.82143 6.6C5.715 6.6 6.42857 7.3326 6.42857 8.25H7.5C7.49839 7.79837 7.38923 7.35399 7.18204 6.95558C6.97484 6.55718 6.6759 6.21683 6.31125 5.9642C6.70875 5.56435 6.96429 5.0127 6.96429 4.4C6.96429 3.19 6 2.2 4.82143 2.2ZM8.57143 2.75V3.85H12.8571V2.75H8.57143ZM4.82143 3.3C5.41982 3.3 5.89286 3.78565 5.89286 4.4C5.89286 5.01435 5.41982 5.5 4.82143 5.5C4.22304 5.5 3.75 5.01435 3.75 4.4C3.75 3.78565 4.22304 3.3 4.82143 3.3ZM8.57143 4.95V6.05H12.8571V4.95H8.57143ZM8.57143 7.15V8.25H11.25V7.15H8.57143Z" fill="#22376C"/>
</svg>
