<svg width="18" height="21" viewBox="0 0 18 21" fill="none" xmlns="http://www.w3.org/2000/svg">
<path fill-rule="evenodd" clip-rule="evenodd" d="M9.39591 20.0214C11.1337 19.1533 18 15.3141 18 8.84211C18 3.95875 13.9706 0 9 0C4.02944 0 0 3.95875 0 8.84211C0 15.3141 6.86625 19.1533 8.60409 20.0214C8.85483 20.1466 9.14517 20.1466 9.39591 20.0214ZM8.99998 12.6316C11.1302 12.6316 12.8571 10.935 12.8571 8.8421C12.8571 6.74923 11.1302 5.05263 8.99998 5.05263C6.86974 5.05263 5.14284 6.74923 5.14284 8.8421C5.14284 10.935 6.86974 12.6316 8.99998 12.6316Z" fill="white"/>
</svg>
