<svg width="24" height="22" viewBox="0 0 24 22" fill="none" xmlns="http://www.w3.org/2000/svg">
<path d="M24 2.75C24 2.02065 23.7471 1.32118 23.297 0.805456C22.847 0.289731 22.2365 0 21.6 0H10.7999C10.1633 0 9.55288 0.289731 9.10279 0.805456C8.65269 1.32118 8.39983 2.02065 8.39983 2.75V5.5C8.39983 5.86467 8.52626 6.21441 8.75131 6.47227C8.97636 6.73013 9.28158 6.875 9.59985 6.875C9.91811 6.875 10.2233 6.73013 10.4484 6.47227C10.6734 6.21441 10.7999 5.86467 10.7999 5.5V2.75H21.6V19.25H10.7999V16.5C10.7999 16.1353 10.6734 15.7856 10.4484 15.5277C10.2233 15.2699 9.91811 15.125 9.59985 15.125C9.28158 15.125 8.97636 15.2699 8.75131 15.5277C8.52626 15.7856 8.39983 16.1353 8.39983 16.5V19.25C8.39983 19.9793 8.65269 20.6788 9.10279 21.1945C9.55288 21.7103 10.1633 22 10.7999 22H21.6C22.2365 22 22.847 21.7103 23.297 21.1945C23.7471 20.6788 24 19.9793 24 19.25V2.75ZM5.6482 5.90288C5.42317 5.6451 5.118 5.50029 4.7998 5.50029C4.48159 5.50029 4.17642 5.6451 3.95139 5.90288L0.351347 10.0279C0.126379 10.2857 0 10.6354 0 11C0 11.3646 0.126379 11.7143 0.351347 11.9721L3.95139 16.0971C4.17771 16.3476 4.48084 16.4862 4.79548 16.4831C5.11012 16.4799 5.41109 16.3353 5.63359 16.0804C5.85608 15.8254 5.98228 15.4806 5.98502 15.1201C5.98775 14.7595 5.8668 14.4122 5.6482 14.1529L4.09659 12.375H15.5999C15.9182 12.375 16.2234 12.2301 16.4484 11.9723C16.6735 11.7144 16.7999 11.3647 16.7999 11C16.7999 10.6353 16.6735 10.2856 16.4484 10.0277C16.2234 9.76987 15.9182 9.625 15.5999 9.625H4.09659L5.6482 7.84712C5.87317 7.58927 5.99955 7.2396 5.99955 6.875C5.99955 6.5104 5.87317 6.16073 5.6482 5.90288Z" fill="white"/>
</svg>
