<svg width="23" height="23" viewBox="0 0 23 23" fill="none" xmlns="http://www.w3.org/2000/svg">
<path d="M8.86455 0H1.67703C0.752268 0 0 0.752268 0 1.67703V5.98954C0 6.91448 0.752268 7.66675 1.67703 7.66675H8.86455C9.78949 7.66675 10.5418 6.91448 10.5418 5.98954V1.67703C10.5418 0.752268 9.78949 0 8.86455 0Z" fill="white"/>
<path d="M8.86455 9.58325H1.67703C0.752268 9.58325 0 10.3355 0 11.2605V21.323C0 22.2478 0.752268 23 1.67703 23H8.86455C9.78949 23 10.5418 22.2478 10.5418 21.323V11.2605C10.5418 10.3355 9.78949 9.58325 8.86455 9.58325Z" fill="white"/>
<path d="M21.3235 15.3333H14.1359C13.211 15.3333 12.4587 16.0855 12.4587 17.0105V21.323C12.4587 22.2477 13.211 23 14.1359 23H21.3235C22.2482 23 23.0005 22.2477 23.0005 21.323V17.0105C23.0005 16.0855 22.2482 15.3333 21.3235 15.3333Z" fill="white"/>
<path d="M21.3235 0H14.1359C13.211 0 12.4587 0.752268 12.4587 1.67703V11.7396C12.4587 12.6645 13.211 13.4168 14.1359 13.4168H21.3235C22.2482 13.4168 23.0005 12.6645 23.0005 11.7396V1.67703C23.0005 0.752268 22.2482 0 21.3235 0Z" fill="white"/>
</svg>
