<svg width="12" height="11" viewBox="0 0 12 11" fill="none" xmlns="http://www.w3.org/2000/svg">
<path d="M2.01 2.10708C1.47 1.73654 1.338 1.01862 1.716 0.491761C2.094 -0.0293084 2.844 -0.156681 3.39 0.208068C3.93 0.578606 4.062 1.29652 3.684 1.82338C3.3 2.34445 2.556 2.47183 2.01 2.10708ZM8.4 9.84207H4.158C3.27 9.84207 2.514 9.21678 2.382 8.37149L1.2 2.89447H0L1.194 8.54518C1.30422 9.22895 1.66413 9.85216 2.20877 10.3023C2.7534 10.7525 3.44688 10.9999 4.164 11H8.4V9.84207ZM8.538 7.5262H5.61L4.992 5.15244C5.94 5.66772 6.96 6.04405 8.082 5.85878V4.62558C7.104 4.80506 6.018 4.46926 5.268 3.90187L4.284 3.16659C4.146 3.06237 3.99 2.9929 3.828 2.94658C3.63528 2.89172 3.43217 2.87984 3.234 2.91184H3.222C2.86868 2.97237 2.55444 3.16512 2.34767 3.44812C2.14091 3.73113 2.05836 4.08149 2.118 4.42294L2.928 7.85042C3.00714 8.24758 3.22707 8.60578 3.55004 8.86355C3.873 9.12131 4.27887 9.26258 4.698 9.2631H8.808L11.1 11L12 10.1316L8.538 7.5262Z" fill="#22376C"/>
</svg>
