<svg width="10" height="12" viewBox="0 0 10 12" fill="none" xmlns="http://www.w3.org/2000/svg">
<path d="M2.08325 9.50008C2.08325 9.50008 0.333252 4.83341 0.333252 2.50008C0.333252 0.166748 1.49992 0.166748 1.49992 0.166748H2.08325C2.08325 0.166748 2.66659 0.166748 2.66659 0.750081C2.66659 1.33341 2.08325 1.33341 2.08325 2.50008C2.08325 3.66675 3.83325 4.83341 3.83325 6.58341C3.83325 8.33341 2.08325 9.50008 2.08325 9.50008ZM4.99992 8.91675C4.41658 8.91675 2.66659 10.3751 2.66659 10.3751C2.49159 10.4917 2.54992 10.6667 2.66659 10.8417C2.66659 10.8417 3.24992 11.8917 4.41658 11.8917H7.91658C8.55825 11.8917 9.08325 11.3667 9.08325 10.7251V10.1417C9.08325 9.50008 8.55825 8.97508 7.91658 8.97508H4.99992V8.91675Z" fill="#22376C"/>
</svg>
