<svg width="13" height="13" viewBox="0 0 13 13" fill="none" xmlns="http://www.w3.org/2000/svg">
<path d="M12.2399 9.43218V11.1276C12.2405 11.285 12.2083 11.4408 12.1452 11.5851C12.0822 11.7293 11.9897 11.8587 11.8737 11.9651C11.7577 12.0715 11.6208 12.1525 11.4717 12.203C11.3226 12.2534 11.1646 12.2721 11.0078 12.258C9.26877 12.069 7.59826 11.4747 6.13055 10.5229C4.76504 9.65523 3.60732 8.49751 2.73962 7.132C1.78449 5.65762 1.1901 3.97899 1.00459 2.23209C0.990464 2.07581 1.00904 1.9183 1.05912 1.76958C1.10921 1.62087 1.18972 1.48422 1.29551 1.36832C1.4013 1.25243 1.53007 1.15983 1.67361 1.09643C1.81716 1.03302 1.97233 1.0002 2.12925 1.00005H3.82472C4.09899 0.997355 4.36489 1.09448 4.57285 1.27333C4.78081 1.45217 4.91664 1.70054 4.95503 1.97212C5.02659 2.51471 5.1593 3.04746 5.35064 3.56021C5.42667 3.76249 5.44313 3.98233 5.39806 4.19368C5.35298 4.40503 5.24827 4.59903 5.09632 4.75269L4.37857 5.47044C5.1831 6.88533 6.35461 8.05684 7.7695 8.86137L8.48725 8.14362C8.64091 7.99167 8.83491 7.88696 9.04626 7.84188C9.25761 7.79681 9.47745 7.81327 9.67973 7.8893C10.1925 8.08064 10.7252 8.21335 11.2678 8.28491C11.5424 8.32364 11.7931 8.46192 11.9723 8.67345C12.1515 8.88499 12.2468 9.15501 12.2399 9.43218Z" stroke="#22376C" stroke-linecap="round" stroke-linejoin="round"/>
</svg>
