<svg width="22" height="22" viewBox="0 0 22 22" fill="none" xmlns="http://www.w3.org/2000/svg">
<path d="M11 21C16.5228 21 21 16.5228 21 11C21 5.47715 16.5228 1 11 1C5.47715 1 1 5.47715 1 11C1 16.5228 5.47715 21 11 21Z" stroke="white" stroke-width="2" stroke-linecap="round" stroke-linejoin="round"/>
<path d="M11.0001 13.2223C12.2274 13.2223 13.2223 12.2274 13.2223 11.0001C13.2223 9.77275 12.2274 8.77783 11.0001 8.77783C9.77275 8.77783 8.77783 9.77275 8.77783 11.0001C8.77783 12.2274 9.77275 13.2223 11.0001 13.2223Z" stroke="white" stroke-width="2" stroke-linecap="round" stroke-linejoin="round"/>
<path d="M11 13.2222V20.9999" stroke="white" stroke-width="2" stroke-linecap="round" stroke-linejoin="round"/>
<path d="M8.77783 11.0001L1.27783 8.77783" stroke="white" stroke-width="2" stroke-linecap="round" stroke-linejoin="round"/>
<path d="M13.2222 11.0001L20.7222 8.77783" stroke="white" stroke-width="2" stroke-linecap="round" stroke-linejoin="round"/>
</svg>
