<svg width="14" height="16" viewBox="0 0 14 16" fill="none" xmlns="http://www.w3.org/2000/svg">
<path d="M4.375 1.75214C4.14294 1.75214 3.92038 1.84433 3.75628 2.00843C3.59219 2.17252 3.5 2.39508 3.5 2.62714C3.5 2.85921 3.59219 3.08177 3.75628 3.24586C3.92038 3.40996 4.14294 3.50214 4.375 3.50214C4.60706 3.50214 4.82962 3.40996 4.99372 3.24586C5.15781 3.08177 5.25 2.85921 5.25 2.62714C5.25 2.39508 5.15781 2.17252 4.99372 2.00843C4.82962 1.84433 4.60706 1.75214 4.375 1.75214ZM1.89875 1.75214C2.07953 1.2398 2.41477 0.796149 2.85827 0.482335C3.30178 0.168521 3.8317 0 4.375 0C4.9183 0 5.44822 0.168521 5.89173 0.482335C6.33523 0.796149 6.67047 1.2398 6.85125 1.75214H13.125C13.3571 1.75214 13.5796 1.84433 13.7437 2.00843C13.9078 2.17252 14 2.39508 14 2.62714C14 2.85921 13.9078 3.08177 13.7437 3.24586C13.5796 3.40996 13.3571 3.50214 13.125 3.50214H6.85125C6.67047 4.01449 6.33523 4.45814 5.89173 4.77195C5.44822 5.08577 4.9183 5.25429 4.375 5.25429C3.8317 5.25429 3.30178 5.08577 2.85827 4.77195C2.41477 4.45814 2.07953 4.01449 1.89875 3.50214H0.875C0.642936 3.50214 0.420376 3.40996 0.256282 3.24586C0.0921874 3.08177 0 2.85921 0 2.62714C0 2.39508 0.0921874 2.17252 0.256282 2.00843C0.420376 1.84433 0.642936 1.75214 0.875 1.75214H1.89875ZM9.625 7.00214C9.39294 7.00214 9.17038 7.09433 9.00628 7.25843C8.84219 7.42252 8.75 7.64508 8.75 7.87714C8.75 8.10921 8.84219 8.33177 9.00628 8.49586C9.17038 8.65996 9.39294 8.75214 9.625 8.75214C9.85706 8.75214 10.0796 8.65996 10.2437 8.49586C10.4078 8.33177 10.5 8.10921 10.5 7.87714C10.5 7.64508 10.4078 7.42252 10.2437 7.25843C10.0796 7.09433 9.85706 7.00214 9.625 7.00214ZM7.14875 7.00214C7.32953 6.4898 7.66477 6.04615 8.10827 5.73233C8.55178 5.41852 9.0817 5.25 9.625 5.25C10.1683 5.25 10.6982 5.41852 11.1417 5.73233C11.5852 6.04615 11.9205 6.4898 12.1012 7.00214H13.125C13.3571 7.00214 13.5796 7.09433 13.7437 7.25843C13.9078 7.42252 14 7.64508 14 7.87714C14 8.10921 13.9078 8.33177 13.7437 8.49586C13.5796 8.65996 13.3571 8.75214 13.125 8.75214H12.1012C11.9205 9.26449 11.5852 9.70814 11.1417 10.022C10.6982 10.3358 10.1683 10.5043 9.625 10.5043C9.0817 10.5043 8.55178 10.3358 8.10827 10.022C7.66477 9.70814 7.32953 9.26449 7.14875 8.75214H0.875C0.642936 8.75214 0.420376 8.65996 0.256282 8.49586C0.0921874 8.33177 0 8.10921 0 7.87714C0 7.64508 0.0921874 7.42252 0.256282 7.25843C0.420376 7.09433 0.642936 7.00214 0.875 7.00214H7.14875ZM4.375 12.2521C4.14294 12.2521 3.92038 12.3443 3.75628 12.5084C3.59219 12.6725 3.5 12.8951 3.5 13.1271C3.5 13.3592 3.59219 13.5818 3.75628 13.7459C3.92038 13.91 4.14294 14.0021 4.375 14.0021C4.60706 14.0021 4.82962 13.91 4.99372 13.7459C5.15781 13.5818 5.25 13.3592 5.25 13.1271C5.25 12.8951 5.15781 12.6725 4.99372 12.5084C4.82962 12.3443 4.60706 12.2521 4.375 12.2521ZM1.89875 12.2521C2.07953 11.7398 2.41477 11.2961 2.85827 10.9823C3.30178 10.6685 3.8317 10.5 4.375 10.5C4.9183 10.5 5.44822 10.6685 5.89173 10.9823C6.33523 11.2961 6.67047 11.7398 6.85125 12.2521H13.125C13.3571 12.2521 13.5796 12.3443 13.7437 12.5084C13.9078 12.6725 14 12.8951 14 13.1271C14 13.3592 13.9078 13.5818 13.7437 13.7459C13.5796 13.91 13.3571 14.0021 13.125 14.0021H6.85125C6.67047 14.5145 6.33523 14.9581 5.89173 15.272C5.44822 15.5858 4.9183 15.7543 4.375 15.7543C3.8317 15.7543 3.30178 15.5858 2.85827 15.272C2.41477 14.9581 2.07953 14.5145 1.89875 14.0021H0.875C0.642936 14.0021 0.420376 13.91 0.256282 13.7459C0.0921874 13.5818 0 13.3592 0 13.1271C0 12.8951 0.0921874 12.6725 0.256282 12.5084C0.420376 12.3443 0.642936 12.2521 0.875 12.2521H1.89875Z" fill="white"/>
</svg>
