<svg width="23" height="24" viewBox="0 0 23 24" fill="none" xmlns="http://www.w3.org/2000/svg">
<path d="M11.4454 15.156C13.1922 15.156 14.6083 13.7399 14.6083 11.993C14.6083 10.2462 13.1922 8.83008 11.4454 8.83008C9.69855 8.83008 8.28241 10.2462 8.28241 11.993C8.28241 13.7399 9.69855 15.156 11.4454 15.156Z" stroke="white" stroke-width="2" stroke-miterlimit="10" stroke-linecap="round" stroke-linejoin="round"/>
<path d="M19.9495 11.993C19.9495 11.9789 19.9495 11.9789 19.9495 11.9649C19.9495 10.4607 20.568 9.04091 21.7771 8.15528L21.8755 8.085L20.0339 4.87988C18.6703 5.49842 17.0958 5.41407 15.8026 4.66902L15.5917 4.5425C14.2985 3.82556 13.4409 2.49011 13.2863 1H9.58919C9.43449 2.49011 8.577 3.81151 7.28371 4.57062L7.07284 4.68308C5.77956 5.42813 4.20512 5.51247 2.84154 4.89394L1 8.09906L1.0984 8.16935C2.32141 9.04091 2.93993 10.4748 2.92588 11.9789C2.92588 11.993 2.92588 11.993 2.92588 12.0071C2.92588 12.0212 2.92588 12.0212 2.92588 12.0351C2.92588 13.5394 2.30735 14.9591 1.0984 15.8447L1 15.887L2.84154 19.092L2.93993 19.0499C4.30352 18.4313 5.86391 18.6 7.15719 19.3592C7.17125 19.3732 7.1853 19.3732 7.19937 19.3873C8.50671 20.1323 9.42042 21.3975 9.57512 22.8875L9.58919 23H13.2863L13.3003 22.8875C13.455 21.3975 14.3687 20.1323 15.676 19.3873C15.6901 19.3732 15.7042 19.3732 15.7183 19.3592C17.0115 18.6141 18.5719 18.4313 19.9355 19.0499L20.0339 19.092L21.8755 15.887L21.7771 15.8166C20.5541 14.9451 19.9355 13.5112 19.9495 12.0071V11.993Z" stroke="white" stroke-width="2" stroke-miterlimit="10" stroke-linecap="square" stroke-linejoin="round"/>
</svg>
