<svg width="32" height="32" viewBox="0 0 32 32" fill="none" xmlns="http://www.w3.org/2000/svg">
<g clip-path="url(#clip0_0_200)">
<path d="M17.9692 10.2209C18.2281 10.2209 18.438 10.0111 18.438 9.75218V9.61218C18.438 9.35331 18.2281 9.14343 17.9692 9.14343C17.7104 9.14343 17.5005 9.35331 17.5005 9.61218V9.75218C17.5005 10.0111 17.7104 10.2209 17.9692 10.2209Z" fill="#104798" stroke="#104798" stroke-width="0.3"/>
<path d="M30.0641 14.8551C30.4796 14.2422 30.7226 13.5031 30.7226 12.7082C30.7226 10.5744 28.9716 8.842 26.8319 8.87456C24.8121 8.90531 23.1436 10.5307 23.0614 12.549C23.0268 13.4002 23.2713 14.1939 23.7107 14.8458C23.1909 15.1464 22.6543 15.6066 22.1844 16.4267C21.2157 15.9848 20.0744 15.7444 19.1024 15.5397C18.8706 15.491 18.647 15.4439 18.4379 15.3967V15.0013C19.4737 14.3797 20.2361 13.4481 20.2361 12.5718C20.2361 12.4689 20.2272 12.3759 20.2109 12.2914C20.2533 12.1949 20.2924 12.0984 20.3281 12.0021C21.3468 11.8964 22.0786 11.3228 22.0786 10.5868L22.0822 9.5485C22.0822 9.02525 21.6646 8.61543 21.1316 8.61543H20.6105L20.6117 7.50056C20.6136 6.233 20.1092 5.1635 19.153 4.40762C18.3275 3.755 17.2187 3.38831 16.0309 3.37512C16.0274 3.37506 16.0239 3.37506 16.0204 3.37512C14.8326 3.38831 13.7238 3.755 12.8983 4.40762C11.9421 5.1635 11.4377 6.233 11.4396 7.49987V8.61543H10.9179C10.3849 8.61543 9.96731 9.02531 9.96731 9.55012L9.97087 10.5867C9.97319 11.3229 10.7048 11.8956 11.7213 12.0018C11.7571 12.0985 11.7964 12.1952 11.8389 12.2921C11.8226 12.3765 11.8134 12.469 11.8134 12.5719C11.8134 13.4479 12.5757 14.3793 13.6116 15.0009V15.3967C13.4026 15.4439 13.1789 15.4911 12.9472 15.5398C11.962 15.7472 10.8029 15.9914 9.82588 16.4449C9.35281 15.6136 8.81213 15.1496 8.28881 14.8466C8.72863 14.1944 8.97344 13.4002 8.93863 12.5484C8.85612 10.5296 7.18637 8.90425 5.16606 8.87456C3.02631 8.84306 1.27562 10.575 1.27562 12.7082C1.27562 13.5033 1.519 14.2426 1.93494 14.8557C0.743062 15.5906 0 16.8929 0 18.3171V20.4242C0 21.2087 0.635938 21.8446 1.42037 21.8446H5.6365C5.89319 21.8446 6.117 21.6469 6.12469 21.3903C6.13269 21.1249 5.91981 20.9071 5.65613 20.9071H1.42013C1.15356 20.9071 0.9375 20.6911 0.9375 20.4245V18.3171C0.9375 17.1676 1.56762 16.1214 2.56562 15.5736C2.753 15.7402 2.95681 15.8884 3.17425 16.0162L4.75238 19.3506C4.82994 19.5144 4.99494 19.6189 5.17606 19.6189H5.178C5.35944 19.6189 5.52437 19.5135 5.60056 19.3489L7.18425 15.9291C7.35125 15.8211 7.50944 15.7008 7.65731 15.5689C8.10213 15.7937 8.57806 16.1445 9.012 16.9096C8.34725 17.3807 7.86375 18.0159 7.74019 18.9022L7.06581 23.1426C7.06194 23.1668 7.06 23.1913 7.06 23.2158V25.3439C7.06 26.0258 7.61375 26.5802 8.29438 26.5802H12.0075C12.47 26.5802 12.895 26.4152 13.2262 26.1402L15.4263 28.3208C15.5806 28.4752 15.7854 28.6188 16.0116 28.625C16.2403 28.6312 16.4725 28.4818 16.625 28.3208L18.7838 26.1802C19.1075 26.4308 19.5131 26.5802 19.9538 26.5802H23.665C24.3463 26.5802 24.9013 26.0258 24.9013 25.3439V23.2158C24.9013 23.2117 24.8989 23.1687 24.8966 23.1514L24.3102 18.9072C24.1856 18.0025 23.6864 17.3589 23.0021 16.8846C23.4314 16.1366 23.9019 15.7904 24.342 15.5682C24.4901 15.7004 24.6486 15.8209 24.8158 15.9291L26.3995 19.3489C26.4757 19.5135 26.6407 19.6189 26.8221 19.6189H26.824C27.0051 19.6189 27.1702 19.5145 27.2477 19.3506L28.8261 16.0155C29.0432 15.8879 29.2466 15.7396 29.4337 15.5732C30.4321 16.1209 31.0625 17.1673 31.0625 18.3171V20.4242C31.0625 20.6905 30.8452 20.9071 30.5781 20.9071H26.3617C26.1051 20.9071 25.8812 21.1049 25.8736 21.3614C25.8656 21.6269 26.0784 21.8446 26.3421 21.8446H30.5781C31.3621 21.8446 32 21.2074 32 20.4242V18.3171C32 16.8924 31.2565 15.5899 30.0641 14.8551ZM20.61 10.5072V9.55287H21.1316C21.1374 9.55287 21.1418 9.55375 21.1447 9.55475L21.1412 10.5851C21.1412 10.719 20.9298 10.8989 20.5782 11.0015C20.5993 10.8356 20.61 10.6707 20.61 10.5072ZM10.9084 10.5836L10.9049 9.55475C10.9078 9.55375 10.9122 9.55287 10.9179 9.55287H11.4396V10.5072C11.4396 10.6705 11.4502 10.8352 11.4712 11.0008C11.1203 10.8978 10.9088 10.7177 10.9084 10.5836ZM5.17144 18.0446L4.4315 16.4812C4.6515 16.5206 4.87756 16.5423 5.10869 16.5423C5.38206 16.5423 5.64863 16.513 5.906 16.4583L5.17144 18.0446ZM7.9925 12.9733C7.86894 14.3561 6.75575 15.4697 5.373 15.593C3.56881 15.7539 2.06369 14.2479 2.225 12.4431C2.34856 11.0603 3.46169 9.94662 4.8445 9.82331C6.64862 9.6625 8.15381 11.1684 7.9925 12.9733ZM12.3771 7.49906C12.3739 5.33975 14.2652 4.33406 16.0257 4.31256C17.7862 4.33406 19.6774 5.33975 19.6742 7.49925L19.6737 7.98862C18.7831 7.39281 17.4746 7.03812 16.034 7.03812C16.0284 7.03812 16.0229 7.03812 16.0173 7.03812C14.5766 7.03812 13.2678 7.39256 12.3771 7.98793V7.49906H12.3771ZM12.5407 11.5009C12.5315 11.4721 12.5231 11.4432 12.5143 11.4143C12.4238 11.1051 12.3771 10.8016 12.3771 10.5072V9.23425C12.9645 8.47543 14.4017 7.974 16.0252 7.97562C16.0281 7.97556 16.0311 7.97562 16.0341 7.97562C17.6516 7.97562 19.0861 8.47668 19.6725 9.23425V10.5072C19.6725 10.829 19.6171 11.1616 19.509 11.5007C19.3632 11.4354 19.2123 11.3818 19.0628 11.3257C17.7708 10.8328 16.8914 10.6304 16.0276 10.6267C16.0263 10.6267 16.0251 10.6267 16.0238 10.6267C15.1587 10.6303 14.2788 10.8328 12.9879 11.3252C12.838 11.3815 12.6869 11.4354 12.5407 11.5009ZM12.7509 12.5717C12.7509 12.5707 12.7509 12.5697 12.7509 12.5688C12.7512 12.4856 12.7996 12.4102 12.8741 12.3732C13.0403 12.2906 13.3209 12.2016 13.3209 12.2016C14.4987 11.7524 15.2825 11.5677 16.0257 11.5643C16.7677 11.5677 17.5511 11.7524 18.7299 12.2021C18.8709 12.255 19.0158 12.3038 19.1471 12.3784C19.223 12.4215 19.2987 12.4767 19.2987 12.5717C19.2987 13.377 17.6819 14.7749 16.0257 14.7879C14.3686 14.7749 12.7509 13.377 12.7509 12.5717ZM17.5004 15.4473V15.767C17.5004 16.1832 17.3612 16.5094 17.0868 16.7365C16.8346 16.9452 16.4804 17.0602 16.0896 17.0602C15.4704 17.0602 14.5491 16.7158 14.5491 15.767V15.4469C15.0286 15.6201 15.5314 15.722 16.0225 15.7253H16.0257C16.0257 15.7253 16.0278 15.7253 16.0289 15.7253C16.5194 15.722 17.0215 15.6202 17.5004 15.4473ZM13.1404 16.4571C13.3278 16.4177 13.5101 16.3793 13.6853 16.3407C13.972 17.4209 15.0582 17.9977 16.0897 17.9977C16.6982 17.9977 17.2647 17.8063 17.6846 17.4587C18.0351 17.1687 18.2673 16.7888 18.3727 16.3425C18.5454 16.3804 18.7248 16.4182 18.9093 16.4571C19.0426 16.4851 19.1784 16.5138 19.3154 16.5432L16.9176 19.7388C16.5921 19.894 16.2885 20.096 16.0251 20.3325C15.7613 20.096 15.4576 19.8941 15.1321 19.7389L12.7343 16.5432C12.8713 16.5138 13.007 16.4852 13.1404 16.4571ZM8.66675 19.0447C8.66725 19.0415 8.66775 19.0383 8.66819 19.0351C8.84462 17.7542 10.2451 17.1611 11.7364 16.7756L13.7074 19.4022C13.0484 19.4039 12.3969 19.6351 11.8669 20.1837C11.1907 20.885 10.8876 21.8287 10.9576 22.7469H8.078L8.66675 19.0447ZM12.5544 25.4744C12.3981 25.5806 12.21 25.6425 12.0075 25.6425H8.29438C8.13063 25.6425 7.9975 25.5087 7.9975 25.3437V23.6844H12.0075C12.0769 23.6844 12.1444 23.6919 12.2094 23.7056C12.6238 23.7931 12.9425 24.1444 12.9806 24.5762C12.9831 24.605 12.9844 24.6337 12.9844 24.6631C12.9844 25.0006 12.8137 25.2981 12.5544 25.4744ZM18.0376 24.6417C18.0345 24.9245 18.0929 25.1945 18.2006 25.4375L16.0256 27.595L13.785 25.3744C13.8731 25.1544 13.9219 24.9144 13.9219 24.6631C13.9219 23.6062 13.0631 22.7469 12.0075 22.7469H11.8956C11.8231 22.0656 12.0388 21.3569 12.5413 20.835C13.3406 20.0075 14.6131 20.3212 15.4062 21.0375C15.46 21.085 15.5025 21.1262 15.5381 21.1594C15.6687 21.2831 15.8031 21.4106 16.0256 21.4106C16.2469 21.4106 16.38 21.2837 16.5094 21.1612C16.545 21.1275 16.5887 21.0862 16.6444 21.0362C17.4369 20.3212 18.7094 20.0075 19.5081 20.8344C20.0112 21.3562 20.2269 22.065 20.1544 22.7469H19.9932C18.9367 22.7469 18.0492 23.5852 18.0376 24.6417ZM23.9638 25.3437C23.9638 25.5081 23.8293 25.6425 23.665 25.6425H19.9538C19.7738 25.6425 19.6056 25.5937 19.4606 25.5087C19.1719 25.34 18.9775 25.0269 18.975 24.6694V24.6631C18.975 24.1581 19.3581 23.7419 19.8494 23.69C19.8837 23.6862 19.9188 23.6844 19.9538 23.6844H23.9638V25.3437ZM23.3815 19.0352L23.8943 22.7469H21.0925C21.1619 21.8288 20.8588 20.8851 20.1825 20.1838C19.6527 19.6351 19.0011 19.4039 18.3423 19.4022L20.3132 16.7756C21.8045 17.1611 23.205 17.7542 23.3815 19.0352ZM26.8286 18.0446L26.094 16.4583C26.3513 16.513 26.6179 16.5423 26.8913 16.5423C27.1225 16.5423 27.3486 16.5206 27.5686 16.4811L26.8286 18.0446ZM26.8913 15.6048C25.2214 15.6048 23.8773 14.1836 24.0039 12.4869C24.1096 11.0713 25.2512 9.92756 26.6667 9.82012C28.3634 9.69137 29.7851 11.0367 29.7851 12.7082C29.7851 14.3054 28.4869 15.6048 26.8913 15.6048Z" fill="#104798" stroke="#104798" stroke-width="0.3"/>
<path d="M14.0804 10.2209C14.3393 10.2209 14.5492 10.0111 14.5492 9.75218V9.61218C14.5492 9.35331 14.3393 9.14343 14.0804 9.14343C13.8216 9.14343 13.6117 9.35331 13.6117 9.61218V9.75218C13.6117 10.0111 13.8216 10.2209 14.0804 10.2209Z" fill="#104798" stroke="#104798" stroke-width="0.3"/>
</g>
<defs>
<clipPath id="clip0_0_200">
<rect width="32" height="32" fill="white"/>
</clipPath>
</defs>
</svg>
